<svg width="128" height="128" viewBox="0 0 128 128" fill="none" xmlns="http://www.w3.org/2000/svg">
<path d="M71.843 0C71.6478 1.7089 71.599 3.46658 71.599 5.17548C71.55 19.1156 77.0148 32.2015 86.9191 42.0645C97.1895 52.2939 110.704 57.3961 124.244 57.3961C125.488 57.3961 126.756 57.3471 128 57.2495C127.488 52.5866 126.537 48.0212 125.097 43.7244C114.73 43.9685 104.361 40.16 96.5306 32.3964C89.212 25.1213 85.2114 15.4539 85.2602 5.22477C85.2602 4.51665 85.3089 3.80852 85.3089 3.17368C81.0154 1.66013 76.5024 0.561548 71.843 0ZM54.6689 0.0978064C50.0582 0.756903 45.6424 1.90426 41.3979 3.46658C47.4477 23.0217 58.328 41.0144 73.3066 55.9554C87.9923 70.6036 105.41 80.9308 123.951 87.0341C125.561 82.8106 126.805 78.4163 127.512 73.8021C111.216 68.3337 95.8963 59.1538 82.967 46.2635C69.7452 33.0803 60.1334 17.3337 54.6689 0.0980645M99.6529 10.2779C97.7014 12.6462 96.6036 15.6 96.6036 18.7006C96.5304 22.265 97.9456 25.6095 100.458 28.1241C102.971 30.6387 106.264 32.0302 109.826 32.0302H109.875C112.924 32.0302 115.778 31.0297 118.144 29.1254C113.339 21.655 107.02 15.185 99.6529 10.2779ZM23.8581 13.4274C20.2964 16.2839 17.0031 19.4815 14.1003 22.9974L104.362 114.011C107.972 111.155 111.168 107.883 114.022 104.343L23.8581 13.4274ZM3.56118 41.3564C1.94184 45.6454 0.796691 50.0989 0.146212 54.6374C16.8812 60.1061 32.6161 69.383 45.8381 82.5662C58.7677 95.4565 68.2328 110.837 73.7948 127.585C78.4055 126.877 82.8207 125.681 87.0168 124.02C80.8447 104.929 70.1844 87.4248 55.4987 72.8255C40.4223 57.9089 22.5894 47.4354 3.56144 41.3564M5.64786 71.4591C3.76313 71.424 1.87787 71.4889 0 71.6534C0.560866 76.3166 1.60988 80.8328 3.09779 85.1295C13.6122 84.7388 24.2972 88.4988 32.2989 96.4575C39.6173 103.733 43.6181 113.401 43.5694 123.63C43.5694 124.069 43.5694 124.582 43.5206 125.046C47.9007 126.534 52.434 127.525 57.0353 128C57.1331 126.584 57.2303 125.143 57.2303 123.678C57.2548 109.787 51.8393 96.6529 41.9347 86.7899C31.9449 76.8354 18.8361 71.7035 5.64786 71.4591ZM18.9299 96.8237C15.7832 96.8237 12.8068 97.9226 10.4161 99.9244C15.3683 107.297 21.8333 113.571 29.3471 118.332C31.2012 116.037 32.2009 113.156 32.2009 110.153C32.2009 106.589 30.8592 103.22 28.3466 100.73C25.8339 98.2152 22.5409 96.8237 18.9792 96.8237H18.9299Z" fill="black"/>
</svg>
