<svg width="139" height="139" viewBox="0 0 139 139" fill="none" xmlns="http://www.w3.org/2000/svg">
<path d="M70.2295 117.459C74.4849 117.444 78.4623 119.172 81.4414 122.15C83.9701 124.677 85.5721 127.963 85.9482 131.5L86.2002 133.863L83.8799 134.383C74.9003 136.396 65.5783 136.536 56.5547 134.765L54.2002 134.303L54.4121 131.914C54.7399 128.213 56.3271 124.765 58.9854 122.108L59.0205 122.074C62.0291 119.067 65.9972 117.461 70.2178 117.459H70.2295ZM69.9766 98.1323C84.5724 98.1017 98.2831 103.803 108.524 114.073L108.934 114.488C109.877 115.461 110.744 116.454 111.549 117.377L113.362 119.458L111.22 121.2C107.499 124.223 103.449 126.818 99.1475 128.936L97.2373 129.876L95.8975 128.223C95.7093 127.991 95.4526 127.73 95.124 127.402L95.1152 127.393C88.47 120.688 79.5545 116.99 70.0127 117.018H70.0117C59.5815 117.046 50.1264 121.568 43.4883 128.714L42.1455 130.161L40.3701 129.298C36.1359 127.243 32.0651 124.709 28.2461 121.711L26.0781 120.009L27.8496 117.899C29.1136 116.393 30.4567 114.955 31.873 113.591C41.7813 104.049 55.2472 98.1586 69.9766 98.1323ZM69.6934 78.8062C90.6888 78.7443 110.892 83.6491 129.017 92.9126L131.245 94.0513L130.25 96.3472C128.388 100.645 126.026 104.758 123.169 108.65L121.837 110.464L119.824 109.457C104.528 101.792 87.4861 97.7334 69.7617 97.7603H69.7607C51.6492 97.7869 34.4898 102.213 19.248 109.943L17.251 110.956L15.9082 109.164C13.0604 105.365 10.6371 101.266 8.68164 96.9409L7.6377 94.6333L9.88965 93.4722C27.8886 84.1944 48.1854 78.9206 69.6865 78.8062H69.6934ZM19.2568 28.6284C34.8141 36.6911 52.2041 40.8989 70.333 40.8726C88.0464 40.8458 104.853 36.6371 119.786 29.2124L121.794 28.2134L123.122 30.022C125.994 33.9323 128.299 38.0586 130.2 42.2993L131.241 44.6235L128.967 45.771C113.16 53.7437 95.5681 58.6489 76.9717 59.6138L132.962 59.8462L135.348 59.856L135.603 62.228C136.102 66.8853 136.161 71.6269 135.604 76.3911L135.328 78.7593L132.944 78.7495L5.60742 78.2212L3.19336 78.2114L2.96387 75.8081C2.51463 71.107 2.5859 66.3669 3.09961 61.6938L3.36133 59.3081L5.76172 59.3188L62.1904 59.5522C43.6703 58.4426 25.8622 53.4879 9.83008 45.0366L7.5918 43.8569L8.65332 41.5591C10.6121 37.3208 13.0025 33.2522 15.8965 29.395L17.252 27.5894L19.2568 28.6284ZM43.5986 9.75732C43.8616 10.0201 44.1236 10.3021 44.3486 10.5435C44.4672 10.6706 44.5792 10.7898 44.6875 10.9038L45.0059 11.2319L45.0146 11.2407C51.6594 17.9454 60.5731 21.6416 70.1143 21.6138C80.3129 21.5695 89.5876 17.2855 96.2197 10.3374L97.5771 8.91553L99.3369 9.7915C103.557 11.8923 107.591 14.5378 111.356 17.5562L113.504 19.2778L111.715 21.3696C110.864 22.3649 109.961 23.3411 109.038 24.2632C99.0547 34.241 85.3103 40.4526 70.1689 40.4829C55.58 40.5132 41.8633 34.8865 31.5977 24.5542V24.5532C30.3696 23.3256 29.0908 21.9786 27.9385 20.5298L26.2676 18.4282L28.3799 16.772C32.2114 13.7664 36.3213 11.2685 40.5635 9.23877L42.2646 8.42432L43.5986 9.75732ZM56.2568 3.94678C65.2464 2.14597 74.6009 2.25761 83.5752 4.20459L85.9189 4.71338L85.6602 7.09814C85.294 10.4803 83.887 13.5653 81.5957 16.0532L81.126 16.5425L81.0918 16.5767C78.0802 19.5866 74.1062 21.1935 69.8809 21.1919C65.6781 21.1902 61.6457 19.5784 58.6699 16.5015L58.4268 16.2524C55.9446 13.6593 54.4654 10.3338 54.126 6.81689L53.8945 4.41943L56.2568 3.94678Z" stroke="black" stroke-width="5.33333"/>
<path d="M59.3271 32.0273C61.9459 32.1551 63.598 34.2204 64.5928 36.1973L65.0137 37.0352C65.4117 37.8524 65.7406 38.6083 65.9902 39.2949C66.3058 40.1628 66.5713 41.1239 66.5713 42.0459C66.5713 43.0761 66.2694 44.1881 65.8857 45.2432C65.4859 46.3427 64.9099 47.6072 64.1865 49.0195L64.1875 49.0205C63.1553 51.0848 59.1863 57.8999 52.3662 69.3428L49.2695 74.5303C45.445 80.9276 42.6162 86.2517 40.752 90.5225C38.8522 94.8747 38.084 97.8494 38.084 99.6523C38.084 99.7861 38.1044 100.049 38.1699 100.478L38.251 100.962L38.2549 100.981L38.2578 101.001C38.4028 101.871 38.5049 102.681 38.5049 103.331C38.5049 104.186 38.31 105.323 37.4502 106.249C36.5558 107.212 35.391 107.47 34.4717 107.47C33.7821 107.47 33.109 107.241 32.7188 107.099C32.2261 106.919 31.6541 106.672 31.0234 106.375L30.6025 106.177L30.4785 106.053C30.372 105.994 30.2206 105.911 30.0156 105.806C29.5043 105.542 28.7495 105.169 27.7402 104.682L27.7334 104.678L27.7266 104.675C23.766 102.735 21.082 99.7427 21.082 95.5518C21.0821 93.6306 21.5507 91.2671 22.3477 88.5684C23.1556 85.8323 24.3512 82.5902 25.915 78.8584C27.5182 74.9978 29.4824 71.2526 31.8047 67.624L31.8145 67.6084L31.8252 67.5928C33.6441 64.8369 37.2485 59.6884 42.6211 52.1709L39.7373 53.2588L39.7383 53.2598C39.2488 53.448 38.7977 53.6076 38.4033 53.7236C38.0837 53.8176 37.5471 53.9629 36.9941 53.9629C36.3529 53.9629 35.6807 53.7823 35.085 53.3604C34.5142 52.956 34.1629 52.4373 33.9502 51.9854C33.5576 51.1511 33.4864 50.23 33.4863 49.5098C33.4863 47.8843 33.8158 46.1272 35.001 44.7939L35.0527 44.7354L35.1084 44.6807C35.6295 44.1596 36.3964 43.6054 37.2344 43.0527C38.1179 42.47 39.244 41.7833 40.5986 40.999L40.6074 40.9951L40.6152 40.9902C45.6744 38.1093 49.6719 35.9274 52.5889 34.46C54.0434 33.7283 55.2682 33.1542 56.2422 32.7568C56.728 32.5586 57.1895 32.3896 57.6084 32.2656C57.9785 32.1561 58.5104 32.0205 59.0693 32.0205L59.3271 32.0273ZM105.141 31.7051C109.577 31.7052 113.399 32.9621 115.643 36.2256H115.642C117.691 39.1403 118.424 43.8484 118.424 49.6143C118.424 54.5974 117.295 58.837 114.604 61.8877L114.605 61.8887C112.833 63.9026 110.02 66.1486 106.338 68.6211C102.62 71.1179 97.8741 73.9384 92.1221 77.0791L92.1211 77.0781C85.4325 80.741 79.8832 83.9929 75.4482 86.835C85.1752 85.6128 95.163 83.6664 105.412 80.9883L110.147 79.751L108.62 84.4004C107.005 89.315 105.491 93.0356 104.055 95.3584L104.056 95.3594C102.608 97.7444 100.641 99.5565 98.1689 100.704L98.168 100.703C95.2546 102.075 90.6767 103.131 84.6992 103.975L84.6982 103.974C78.6851 104.832 72.5688 105.262 66.3506 105.262C62.7745 105.262 59.5776 104.184 57.7061 101.321L57.7012 101.314L57.6973 101.307C55.4481 97.8165 54.2237 94.204 54.2236 90.5068C54.2236 88.021 55.3707 85.5969 57.0947 83.3145C58.8395 81.0045 61.3643 78.5877 64.5684 76.0605C70.982 71.002 80.4831 65.2182 92.9756 58.708L92.9844 58.7031C99.4859 55.3475 103.307 52.617 104.956 50.5693L104.978 50.542C105.773 49.5807 106.305 48.838 106.623 48.2939C106.659 48.2323 106.688 48.1732 106.716 48.1211C106.464 47.9678 106.14 47.8662 105.666 47.8662C101.218 47.8662 94.7187 49.621 86.0361 53.3789C86.5267 53.5362 86.9889 53.726 87.4082 53.959C88.5275 54.5808 89.7265 55.7596 89.7266 57.6035C89.7266 58.3391 89.5765 59.1988 89.0664 59.9922C88.5344 60.8197 87.7641 61.3364 86.957 61.6055C86.1023 61.8904 83.6502 62.3842 79.9766 63.0645L79.9531 63.0684L79.9287 63.0723C77.9044 63.4097 75.4596 63.8839 72.5879 64.498C71.7556 64.757 70.9009 64.8955 70.0303 64.8955C68.5449 64.8955 67.0005 64.4113 65.9102 63.0693C64.9061 61.8334 64.6299 60.2786 64.6299 58.8652C64.6299 54.8825 66.0341 50.6385 68.5508 46.1973C71.6082 40.7375 77.4041 37.0365 85.2705 34.751L86.0391 34.5332C92.7452 32.6594 99.1167 31.7051 105.141 31.7051Z" fill="white" stroke="black" stroke-width="5.33333"/>
</svg>
